<svg xmlns="http://www.w3.org/2000/svg" width="1200" height="630" viewBox="0 0 1200 630" role="img" aria-labelledby="title desc">
  <title id="title">Paper Galaxy social preview</title>
  <desc id="desc">A local-first research map with colored document nodes and explainable links.</desc>
  <rect width="1200" height="630" fill="#101219"/>
  <g opacity="0.26" stroke="#31384a" stroke-width="2">
    <path d="M0 120h1200M0 240h1200M0 360h1200M0 480h1200"/>
    <path d="M160 0v630M320 0v630M480 0v630M640 0v630M800 0v630M960 0v630"/>
  </g>
  <g stroke="#c9bdff" stroke-width="5" opacity="0.62">
    <line x1="190" y1="350" x2="420" y2="240"/>
    <line x1="420" y1="240" x2="610" y2="330"/>
    <line x1="610" y1="330" x2="850" y2="220"/>
    <line x1="420" y1="240" x2="510" y2="500"/>
    <line x1="510" y1="500" x2="850" y2="220"/>
    <line x1="610" y1="330" x2="870" y2="460"/>
  </g>
  <g stroke="#f2f3ff" stroke-width="6">
    <circle cx="190" cy="350" r="28" fill="#86b7ff"/>
    <circle cx="420" cy="240" r="34" fill="#68d8c8"/>
    <circle cx="610" cy="330" r="30" fill="#68d8c8"/>
    <circle cx="850" cy="220" r="31" fill="#b9b1ff"/>
    <circle cx="510" cy="500" r="30" fill="#68d8c8"/>
    <circle cx="870" cy="460" r="42" fill="#f3bd5c"/>
  </g>
  <text x="86" y="115" fill="#f8f8ff" font-family="Arial, sans-serif" font-size="72" font-weight="800">Paper Galaxy</text>
  <text x="88" y="170" fill="#cfc8ff" font-family="Arial, sans-serif" font-size="34" font-weight="700">Local-first research maps</text>
  <text x="88" y="545" fill="#d6dde8" font-family="Arial, sans-serif" font-size="30">No account. No telemetry. Synthetic public demo.</text>
</svg>
